<svg width="88" height="77" viewBox="0 0 88 77" fill="none" xmlns="http://www.w3.org/2000/svg">
<circle cx="1" cy="70" r="1" fill="#86EFAC"/>
<circle cx="66" cy="76" r="1" fill="#FDE047"/>
<circle cx="14" cy="4" r="1" fill="#E5E7EB"/>
<path fill-rule="evenodd" clip-rule="evenodd" d="M76.9714 23.6338C79.0454 23.4633 81.1697 23.561 83.2281 23.6696C83.6712 23.6943 84.028 24.0383 83.993 24.4313C83.989 24.8298 83.6178 25.1317 83.2058 25.1123C81.211 25.0055 79.1516 24.904 77.174 25.0714C76.7522 25.1089 76.3546 24.816 76.2945 24.4185C76.2344 24.0213 76.5496 23.6716 76.9714 23.6338Z" fill="#FFF1EE"/>
<path fill-rule="evenodd" clip-rule="evenodd" d="M72.1771 15.3911C75.8828 12.9569 79.9269 10.975 83.5841 8.45029C83.9123 8.21222 84.4117 8.28154 84.6768 8.60113C84.9418 8.92101 84.8963 9.3752 84.5371 9.60799C80.8783 12.1414 76.8328 14.1319 73.1256 16.5748C72.7676 16.8008 72.2702 16.7202 72.0065 16.3929C71.7737 16.0713 71.8191 15.6171 72.1771 15.3911Z" fill="#FFF1EE"/>
<path fill-rule="evenodd" clip-rule="evenodd" d="M68.1358 2.9119C67.7522 4.60106 67.3688 6.29025 66.9851 7.9797C66.9186 8.37024 66.4944 8.60829 66.0629 8.51525C65.6315 8.42193 65.3778 8.03662 65.4444 7.64579C65.8285 5.95379 66.2123 4.26205 66.5964 2.57034C66.694 2.18508 67.1177 1.94899 67.5488 2.0443C67.9488 2.13432 68.2333 2.52693 68.1358 2.9119Z" fill="#FFF1EE"/>
<path fill-rule="evenodd" clip-rule="evenodd" d="M74.9487 22.6627C77.0391 22.4909 79.1803 22.5893 81.255 22.6988C81.7016 22.7237 82.0611 23.0704 82.0259 23.4665C82.0218 23.8682 81.6478 24.1725 81.2324 24.1529C79.2219 24.0453 77.1461 23.943 75.1529 24.1117C74.7278 24.1495 74.327 23.8543 74.2664 23.4536C74.2058 23.0532 74.5236 22.7008 74.9487 22.6627Z" fill="#FFB9AA"/>
<path fill-rule="evenodd" clip-rule="evenodd" d="M69.7191 15.1832C73.4023 12.7638 77.4217 10.7939 81.0567 8.2846C81.3829 8.04797 81.8792 8.11688 82.1427 8.43452C82.4061 8.75245 82.3609 9.20389 82.0039 9.43526C78.3674 11.9533 74.3465 13.9316 70.6618 16.3597C70.306 16.5844 69.8116 16.5042 69.5494 16.179C69.3181 15.8592 69.3632 15.4078 69.7191 15.1832Z" fill="#FFB9AA"/>
<path fill-rule="evenodd" clip-rule="evenodd" d="M66.0432 1.77676C65.6565 3.4793 65.2701 5.18186 64.8834 6.88469C64.8163 7.27832 64.3888 7.51826 63.9539 7.42448C63.519 7.33041 63.2633 6.94205 63.3304 6.54813C63.7176 4.84274 64.1045 3.1376 64.4915 1.43249C64.5899 1.04419 65.017 0.80623 65.4515 0.902294C65.8547 0.993027 66.1415 1.38874 66.0432 1.77676Z" fill="#FFB9AA"/>
<path d="M36.5 74C56.1061 74 72 58.1061 72 38.5C72 18.8939 56.1061 3 36.5 3C16.8939 3 1 18.8939 1 38.5C1 58.1061 16.8939 74 36.5 74Z" fill="#1DAB87"/>
<path d="M36 50C38.7614 50 41 47.9853 41 45.5C41 43.0147 38.7614 41 36 41C33.2386 41 31 43.0147 31 45.5C31 47.9853 33.2386 50 36 50Z" fill="#3F3D56"/>
<path d="M36 48C37.6569 48 39 46.8807 39 45.5C39 44.1193 37.6569 43 36 43C34.3431 43 33 44.1193 33 45.5C33 46.8807 34.3431 48 36 48Z" fill="#1DAB87"/>
<path d="M45.7313 56H26.2689C24.3418 55.998 22.4942 55.2793 21.1315 54.0015C19.7688 52.7237 19.0022 50.9912 19 49.184V40.8163C19.0022 39.0091 19.7687 37.2766 21.1314 35.9987C22.4941 34.7209 24.3418 34.0021 26.2689 34H45.7313C47.6584 34.0021 49.506 34.7209 50.8686 35.9988C52.2313 37.2766 52.9978 39.0092 53 40.8163V49.184C52.9978 50.9911 52.2313 52.7236 50.8686 54.0014C49.5059 55.2792 47.6584 55.998 45.7313 56ZM26.2689 34.7137C24.5435 34.7155 22.8894 35.3591 21.6694 36.5031C20.4493 37.6472 19.7631 39.1984 19.7611 40.8163V49.184C19.7631 50.802 20.4493 52.353 21.6694 53.4971C22.8894 54.6411 24.5436 55.2845 26.2689 55.2863H45.7312C47.4566 55.2845 49.1107 54.6411 50.3307 53.4971C51.5507 52.353 52.237 50.8019 52.2389 49.184V40.8163C52.237 39.1984 51.5507 37.6472 50.3307 36.5032C49.1107 35.3591 47.4566 34.7155 45.7312 34.7137L26.2689 34.7137Z" fill="white"/>
<path d="M25.0494 51.9419H42.0521C42.9346 51.9419 43.8085 51.7629 44.6239 51.4152C45.4392 51.0675 46.1801 50.5578 46.8041 49.9153C47.4281 49.2727 47.9232 48.5099 48.2609 47.6704C48.5986 46.8309 48.7724 45.9311 48.7724 45.0225V37.4548C48.7711 36.6155 48.6209 35.7836 48.3291 35C49.1586 35.6431 49.8317 36.4758 50.2952 37.4325C50.7587 38.3892 51 39.4437 51 40.5128V48.0805C51 48.9892 50.8262 49.889 50.4885 50.7285C50.1507 51.568 49.6557 52.3308 49.0317 52.9733C48.4076 53.6159 47.6668 54.1256 46.8514 54.4733C46.0361 54.821 45.1622 55 44.2797 55H27.277C25.9144 54.9992 24.5842 54.5717 23.4631 53.7743C22.342 52.9769 21.4829 51.8472 21 50.5353C22.1639 51.448 23.5865 51.9421 25.0494 51.9419Z" fill="#3F3D56"/>
<path d="M36.709 19C33.0447 19 29.8237 20.557 28 22.8941C29.9496 21.5623 32.3034 20.8535 34.7146 20.8719C40.389 20.8719 45.0056 24.6026 45.0056 29.1883V33H47V27.3163C47 22.7307 42.3835 19 36.709 19Z" fill="#3F3D56"/>
<path d="M47 34H25V27.5044C25 22.2637 29.9346 18 36 18C42.0654 18 47 22.2637 47 27.5044V34ZM25.7106 33.2869H46.2894V27.5044C46.2894 22.6568 41.6737 18.7131 36 18.7131C30.3263 18.7131 25.7106 22.6568 25.7106 27.5044V33.2869Z" fill="white"/>
<path d="M41.973 32H30.027C29.4896 31.9994 28.9743 31.7794 28.5943 31.3884C28.2143 30.9974 28.0006 30.4672 28 29.9143V27.1045C28 23.187 31.5888 20 36 20C40.4112 20 44 23.1871 44 27.1045V29.9143C43.9994 30.4672 43.7857 30.9974 43.4057 31.3884C43.0257 31.7794 42.5104 31.9994 41.973 32ZM36 20.7751C32.0041 20.7751 28.7533 23.6143 28.7533 27.1045V29.9143C28.7537 30.2617 28.888 30.5949 29.1267 30.8406C29.3655 31.0863 29.6893 31.2245 30.027 31.2249H41.973C42.3107 31.2245 42.6345 31.0863 42.8733 30.8406C43.112 30.5949 43.2463 30.2617 43.2467 29.9143V27.1045C43.2467 23.6143 39.9959 20.7751 36 20.7751Z" fill="white"/>
</svg>
